import { MIDI } from "midiconvert";

export interface SegmentType {
  midiJson: MIDI;
  centerTime: number;
  difficulty: number;
  midiName: string;
  offset: number;
}

const data: SegmentType[] = JSON.parse(
  `[{"offset":0,"midiJson":{"header":{"PPQ":480,"bpm":80,"timeSignature":[4,4],"name":"untitled"},"startTime":0.1875,"duration":4.125,"tracks":[{"startTime":0.1875,"duration":4.125,"length":20,"notes":[{"name":"C4","midi":60,"time":0.1875,"velocity":0.7874015748031497,"duration":0.1875},{"name":"D4","midi":62,"time":0.375,"velocity":0.7874015748031497,"duration":0.1875},{"name":"E4","midi":64,"time":0.5625,"velocity":0.7874015748031497,"duration":0.1875},{"name":"F4","midi":65,"time":0.75,"velocity":0.7874015748031497,"duration":0.1875},{"name":"D4","midi":62,"time":0.9375,"velocity":0.7874015748031497,"duration":0.1875},{"name":"E4","midi":64,"time":1.125,"velocity":0.7874015748031497,"duration":0.1875},{"name":"C4","midi":60,"time":1.3125,"velocity":0.7874015748031497,"duration":0.1875},{"name":"G4","midi":67,"time":1.5,"velocity":0.7874015748031497,"duration":0.375},{"name":"C5","midi":72,"time":1.875,"velocity":0.7874015748031497,"duration":0.375},{"name":"C5","midi":72,"time":2.25,"velocity":0.7874015748031497,"duration":0.0625},{"name":"B4","midi":71,"time":2.3125,"velocity":0.7874015748031497,"duration":0.0625},{"name":"C5","midi":72,"time":2.375,"velocity":0.7874015748031497,"duration":0.0625},{"name":"B4","midi":71,"time":2.4375,"velocity":0.7874015748031497,"duration":0.1875},{"name":"C5","midi":72,"time":2.625,"velocity":0.7874015748031497,"duration":0.375},{"name":"D5","midi":74,"time":3,"velocity":0.7874015748031497,"duration":0.1875},{"name":"G4","midi":67,"time":3.1875,"velocity":0.7874015748031497,"duration":0.1875},{"name":"A4","midi":69,"time":3.375,"velocity":0.7874015748031497,"duration":0.1875},{"name":"B4","midi":71,"time":3.5625,"velocity":0.7874015748031497,"duration":0.1875},{"name":"C5","midi":72,"time":3.75,"velocity":0.7874015748031497,"duration":0.1875},{"name":"A4","midi":69,"time":3.9375,"velocity":0.7874015748031497,"duration":0.1875}],"controlChanges":{},"instrumentNumber":6,"instrument":"harpsichord","instrumentFamily":"piano","channelNumber":0,"isPercussion":false}]},"midiName":"untitled","centerTime":1.875,"difficulty":null},{"offset":3,"midiJson":{"header":{"PPQ":480,"bpm":80,"timeSignature":[4,4],"name":"untitled"},"startTime":1.125,"duration":5.0625,"tracks":[{"startTime":1.125,"duration":5.0625,"length":20,"notes":[{"name":"B4","midi":71,"time":1.125,"velocity":0.7874015748031497,"duration":0.1875},{"name":"G4","midi":67,"time":1.3125,"velocity":0.7874015748031497,"duration":0.1875},{"name":"D5","midi":74,"time":1.5,"velocity":0.7874015748031497,"duration":0.375},{"name":"G5","midi":79,"time":1.875,"velocity":0.7874015748031497,"duration":0.375},{"name":"G5","midi":79,"time":2.25,"velocity":0.7874015748031497,"duration":0.0625},{"name":"F5","midi":77,"time":2.3125,"velocity":0.7874015748031497,"duration":0.0625},{"name":"G5","midi":79,"time":2.375,"velocity":0.7874015748031497,"duration":0.0625},{"name":"F5","midi":77,"time":2.4375,"velocity":0.7874015748031497,"duration":0.1875},{"name":"G5","midi":79,"time":2.625,"velocity":0.7874015748031497,"duration":0.375},{"name":"E5","midi":76,"time":3,"velocity":0.7874015748031497,"duration":0.1875},{"name":"A5","midi":81,"time":3.1875,"velocity":0.7874015748031497,"duration":0.1875},{"name":"G5","midi":79,"time":3.375,"velocity":0.7874015748031497,"duration":0.1875},{"name":"F5","midi":77,"time":3.5625,"velocity":0.7874015748031497,"duration":0.1875},{"name":"E5","midi":76,"time":3.75,"velocity":0.7874015748031497,"duration":0.1875},{"name":"G5","midi":79,"time":3.9375,"velocity":0.7874015748031497,"duration":0.1875},{"name":"F5","midi":77,"time":4.125,"velocity":0.7874015748031497,"duration":0.1875},{"name":"A5","midi":81,"time":4.3125,"velocity":0.7874015748031497,"duration":0.1875},{"name":"G5","midi":79,"time":4.5,"velocity":0.7874015748031497,"duration":0.1875},{"name":"F5","midi":77,"time":4.6875,"velocity":0.7874015748031497,"duration":0.1875},{"name":"E5","midi":76,"time":4.875,"velocity":0.7874015748031497,"duration":0.1875}],"controlChanges":{},"instrumentNumber":6,"instrument":"harpsichord","instrumentFamily":"piano","channelNumber":0,"isPercussion":false}]},"midiName":"untitled","centerTime":1.875,"difficulty":null},{"offset":6,"midiJson":{"header":{"PPQ":480,"bpm":80,"timeSignature":[4,4],"name":"untitled"},"startTime":2.0625,"duration":6,"tracks":[{"startTime":2.0625,"duration":6,"length":21,"notes":[{"name":"D5","midi":74,"time":2.0625,"velocity":0.7874015748031497,"duration":0.1875},{"name":"C5","midi":72,"time":2.25,"velocity":0.7874015748031497,"duration":0.1875},{"name":"E5","midi":76,"time":2.4375,"velocity":0.7874015748031497,"duration":0.1875},{"name":"D5","midi":74,"time":2.625,"velocity":0.7874015748031497,"duration":0.1875},{"name":"F5","midi":77,"time":2.8125,"velocity":0.7874015748031497,"duration":0.1875},{"name":"E5","midi":76,"time":3,"velocity":0.7874015748031497,"duration":0.1875},{"name":"D5","midi":74,"time":3.1875,"velocity":0.7874015748031497,"duration":0.1875},{"name":"C5","midi":72,"time":3.375,"velocity":0.7874015748031497,"duration":0.1875},{"name":"B4","midi":71,"time":3.5625,"velocity":0.7874015748031497,"duration":0.1875},{"name":"A4","midi":69,"time":3.75,"velocity":0.7874015748031497,"duration":0.1875},{"name":"C5","midi":72,"time":3.9375,"velocity":0.7874015748031497,"duration":0.1875},{"name":"B4","midi":71,"time":4.125,"velocity":0.7874015748031497,"duration":0.1875},{"name":"D5","midi":74,"time":4.3125,"velocity":0.7874015748031497,"duration":0.1875},{"name":"C5","midi":72,"time":4.5,"velocity":0.7874015748031497,"duration":0.1875},{"name":"B4","midi":71,"time":4.6875,"velocity":0.7874015748031497,"duration":0.1875},{"name":"A4","midi":69,"time":4.875,"velocity":0.7874015748031497,"duration":0.1875},{"name":"G4","midi":67,"time":5.0625,"velocity":0.7874015748031497,"duration":0.1875},{"name":"F#4","midi":66,"time":5.25,"velocity":0.7874015748031497,"duration":0.1875},{"name":"A4","midi":69,"time":5.4375,"velocity":0.7874015748031497,"duration":0.1875},{"name":"G4","midi":67,"time":5.625,"velocity":0.7874015748031497,"duration":0.1875},{"name":"B4","midi":71,"time":5.8125,"velocity":0.7874015748031497,"duration":0.1875}],"controlChanges":{},"instrumentNumber":6,"instrument":"harpsichord","instrumentFamily":"piano","channelNumber":0,"isPercussion":false}]},"midiName":"untitled","centerTime":1.875,"difficulty":null},{"offset":12,"midiJson":{"header":{"PPQ":480,"bpm":80,"timeSignature":[4,4],"name":"untitled"},"startTime":0,"duration":3.9375,"tracks":[{"startTime":0,"duration":3.9375,"length":19,"notes":[{"name":"A4","midi":69,"time":0,"velocity":0.7874015748031497,"duration":0.375},{"name":"D4","midi":62,"time":0.375,"velocity":0.7874015748031497,"duration":0.375},{"name":"C5","midi":72,"time":0.75,"velocity":0.7874015748031497,"duration":0.09375},{"name":"B4","midi":71,"time":0.84375,"velocity":0.7874015748031497,"duration":0.09375},{"name":"C5","midi":72,"time":0.9375,"velocity":0.7874015748031497,"duration":0.375},{"name":"D5","midi":74,"time":1.3125,"velocity":0.7874015748031497,"duration":0.1875},{"name":"B4","midi":71,"time":1.5,"velocity":0.7874015748031497,"duration":0.1875},{"name":"A4","midi":69,"time":1.6875,"velocity":0.7874015748031497,"duration":0.1875},{"name":"G4","midi":67,"time":1.875,"velocity":0.7874015748031497,"duration":0.1875},{"name":"F#4","midi":66,"time":2.0625,"velocity":0.7874015748031497,"duration":0.1875},{"name":"E4","midi":64,"time":2.25,"velocity":0.7874015748031497,"duration":0.1875},{"name":"G4","midi":67,"time":2.4375,"velocity":0.7874015748031497,"duration":0.1875},{"name":"F#4","midi":66,"time":2.625,"velocity":0.7874015748031497,"duration":0.1875},{"name":"A4","midi":69,"time":2.8125,"velocity":0.7874015748031497,"duration":0.1875},{"name":"G4","midi":67,"time":3,"velocity":0.7874015748031497,"duration":0.1875},{"name":"B4","midi":71,"time":3.1875,"velocity":0.7874015748031497,"duration":0.1875},{"name":"A4","midi":69,"time":3.375,"velocity":0.7874015748031497,"duration":0.1875},{"name":"C5","midi":72,"time":3.5625,"velocity":0.7874015748031497,"duration":0.1875},{"name":"B4","midi":71,"time":3.75,"velocity":0.7874015748031497,"duration":0.1875}],"controlChanges":{},"instrumentNumber":6,"instrument":"harpsichord","instrumentFamily":"piano","channelNumber":0,"isPercussion":false}]},"midiName":"untitled","centerTime":1.875,"difficulty":null},{"offset":15,"midiJson":{"header":{"PPQ":480,"bpm":80,"timeSignature":[4,4],"name":"untitled"},"startTime":0.9375,"duration":3.375,"tracks":[{"startTime":0.9375,"duration":3.375,"length":15,"notes":[{"name":"D5","midi":74,"time":0.9375,"velocity":0.7874015748031497,"duration":0.1875},{"name":"C5","midi":72,"time":1.125,"velocity":0.7874015748031497,"duration":0.1875},{"name":"E5","midi":76,"time":1.3125,"velocity":0.7874015748031497,"duration":0.1875},{"name":"D5","midi":74,"time":1.5,"velocity":0.7874015748031497,"duration":0.1875},{"name":"B4","midi":71,"time":1.6875,"velocity":0.7874015748031497,"duration":0.09375},{"name":"C5","midi":72,"time":1.78125,"velocity":0.7874015748031497,"duration":0.09375},{"name":"D5","midi":74,"time":1.875,"velocity":0.7874015748031497,"duration":0.1875},{"name":"G5","midi":79,"time":2.0625,"velocity":0.7874015748031497,"duration":0.1875},{"name":"C5","midi":72,"time":2.25,"velocity":0.7874015748031497,"duration":0.0625},{"name":"B4","midi":71,"time":2.3125,"velocity":0.7874015748031497,"duration":0.0625},{"name":"C5","midi":72,"time":2.375,"velocity":0.7874015748031497,"duration":0.0625},{"name":"B4","midi":71,"time":2.4375,"velocity":0.7874015748031497,"duration":0.1875},{"name":"A4","midi":69,"time":2.625,"velocity":0.7874015748031497,"duration":0.1875},{"name":"G4","midi":67,"time":2.8125,"velocity":0.7874015748031497,"duration":0.1875},{"name":"G4","midi":67,"time":3,"velocity":0.7874015748031497,"duration":0.375}],"controlChanges":{},"instrumentNumber":6,"instrument":"harpsichord","instrumentFamily":"piano","channelNumber":0,"isPercussion":false}]},"midiName":"untitled","centerTime":1.03125,"difficulty":null},{"offset":18,"midiJson":{"header":{"PPQ":480,"bpm":80,"timeSignature":[4,4],"name":"untitled"},"startTime":1.6875,"duration":3.375,"tracks":[{"startTime":1.6875,"duration":3.375,"length":11,"notes":[{"name":"G4","midi":67,"time":1.6875,"velocity":0.7874015748031497,"duration":0.1875},{"name":"A4","midi":69,"time":1.875,"velocity":0.7874015748031497,"duration":0.1875},{"name":"B4","midi":71,"time":2.0625,"velocity":0.7874015748031497,"duration":0.1875},{"name":"C5","midi":72,"time":2.25,"velocity":0.7874015748031497,"duration":0.1875},{"name":"A4","midi":69,"time":2.4375,"velocity":0.7874015748031497,"duration":0.1875},{"name":"B4","midi":71,"time":2.625,"velocity":0.7874015748031497,"duration":0.1875},{"name":"G4","midi":67,"time":2.8125,"velocity":0.7874015748031497,"duration":0.1875},{"name":"G4","midi":67,"time":3,"velocity":0.7874015748031497,"duration":0.0625},{"name":"F#4","midi":66,"time":3.0625,"velocity":0.7874015748031497,"duration":0.0625},{"name":"G4","midi":67,"time":3.125,"velocity":0.7874015748031497,"duration":0.0625},{"name":"F#4","midi":66,"time":3.1875,"velocity":0.7874015748031497,"duration":0.1875}],"controlChanges":{},"instrumentNumber":6,"instrument":"harpsichord","instrumentFamily":"piano","channelNumber":0,"isPercussion":false}]},"midiName":"untitled","centerTime":0.75,"difficulty":null},{"offset":21,"midiJson":{"header":{"PPQ":480,"bpm":80,"timeSignature":[4,4],"name":"untitled"},"startTime":1.6875,"duration":3.375,"tracks":[{"startTime":1.6875,"duration":3.375,"length":8,"notes":[{"name":"A4","midi":69,"time":1.6875,"velocity":0.7874015748031497,"duration":0.1875},{"name":"B4","midi":71,"time":1.875,"velocity":0.7874015748031497,"duration":0.1875},{"name":"C5","midi":72,"time":2.0625,"velocity":0.7874015748031497,"duration":0.1875},{"name":"D5","midi":74,"time":2.25,"velocity":0.7874015748031497,"duration":0.1875},{"name":"B4","midi":71,"time":2.4375,"velocity":0.7874015748031497,"duration":0.1875},{"name":"C5","midi":72,"time":2.625,"velocity":0.7874015748031497,"duration":0.1875},{"name":"A4","midi":69,"time":2.8125,"velocity":0.7874015748031497,"duration":0.1875},{"name":"B4","midi":71,"time":3,"velocity":0.7874015748031497,"duration":0.375}],"controlChanges":{},"instrumentNumber":6,"instrument":"harpsichord","instrumentFamily":"piano","channelNumber":0,"isPercussion":false}]},"midiName":"untitled","centerTime":0.65625,"difficulty":null},{"offset":24,"midiJson":{"header":{"PPQ":480,"bpm":80,"timeSignature":[4,4],"name":"untitled"},"startTime":1.6875,"duration":3.375,"tracks":[{"startTime":1.6875,"duration":3.375,"length":8,"notes":[{"name":"D5","midi":74,"time":1.6875,"velocity":0.7874015748031497,"duration":0.1875},{"name":"C5","midi":72,"time":1.875,"velocity":0.7874015748031497,"duration":0.1875},{"name":"B4","midi":71,"time":2.0625,"velocity":0.7874015748031497,"duration":0.1875},{"name":"A4","midi":69,"time":2.25,"velocity":0.7874015748031497,"duration":0.1875},{"name":"C5","midi":72,"time":2.4375,"velocity":0.7874015748031497,"duration":0.1875},{"name":"B4","midi":71,"time":2.625,"velocity":0.7874015748031497,"duration":0.1875},{"name":"D5","midi":74,"time":2.8125,"velocity":0.7874015748031497,"duration":0.1875},{"name":"C5","midi":72,"time":3,"velocity":0.7874015748031497,"duration":0.375}],"controlChanges":{},"instrumentNumber":6,"instrument":"harpsichord","instrumentFamily":"piano","channelNumber":0,"isPercussion":false}]},"midiName":"untitled","centerTime":0.65625,"difficulty":null},{"offset":27,"midiJson":{"header":{"PPQ":480,"bpm":80,"timeSignature":[4,4],"name":"untitled"},"startTime":1.6875,"duration":5.625,"tracks":[{"startTime":1.6875,"duration":5.625,"length":14,"notes":[{"name":"E5","midi":76,"time":1.6875,"velocity":0.7874015748031497,"duration":0.1875},{"name":"D5","midi":74,"time":1.875,"velocity":0.7874015748031497,"duration":0.1875},{"name":"C5","midi":72,"time":2.0625,"velocity":0.7874015748031497,"duration":0.1875},{"name":"B4","midi":71,"time":2.25,"velocity":0.7874015748031497,"duration":0.1875},{"name":"D5","midi":74,"time":2.4375,"velocity":0.7874015748031497,"duration":0.1875},{"name":"C#5","midi":73,"time":2.625,"velocity":0.7874015748031497,"duration":0.1875},{"name":"E5","midi":76,"time":2.8125,"velocity":0.7874015748031497,"duration":0.1875},{"name":"D5","midi":74,"time":3,"velocity":0.7874015748031497,"duration":0.375},{"name":"C#5","midi":73,"time":3.375,"velocity":0.7874015748031497,"duration":0.375},{"name":"D5","midi":74,"time":3.75,"velocity":0.7874015748031497,"duration":0.375},{"name":"E5","midi":76,"time":4.125,"velocity":0.7874015748031497,"duration":0.375},{"name":"F5","midi":77,"time":4.5,"velocity":0.7874015748031497,"duration":0.375},{"name":"A4","midi":69,"time":4.875,"velocity":0.7874015748031497,"duration":0.375},{"name":"B4","midi":71,"time":5.25,"velocity":0.7874015748031497,"duration":0.375}],"controlChanges":{},"instrumentNumber":6,"instrument":"harpsichord","instrumentFamily":"piano","channelNumber":0,"isPercussion":false}]},"midiName":"untitled","centerTime":1.78125,"difficulty":null},{"offset":30,"midiJson":{"header":{"PPQ":480,"bpm":80,"timeSignature":[4,4],"name":"untitled"},"startTime":2.625,"duration":6.5625,"tracks":[{"startTime":2.625,"duration":6.5625,"length":10,"notes":[{"name":"C#5","midi":73,"time":2.625,"velocity":0.7874015748031497,"duration":0.375},{"name":"D5","midi":74,"time":3,"velocity":0.7874015748031497,"duration":0.375},{"name":"F#4","midi":66,"time":3.375,"velocity":0.7874015748031497,"duration":0.375},{"name":"G#4","midi":68,"time":3.75,"velocity":0.7874015748031497,"duration":0.375},{"name":"A4","midi":69,"time":4.125,"velocity":0.7874015748031497,"duration":0.375},{"name":"B4","midi":71,"time":4.5,"velocity":0.7874015748031497,"duration":0.375},{"name":"C5","midi":72,"time":4.875,"velocity":0.7874015748031497,"duration":0.375},{"name":"D5","midi":74,"time":5.25,"velocity":0.7874015748031497,"duration":0.9375},{"name":"E4","midi":64,"time":6.1875,"velocity":0.7874015748031497,"duration":0.1875},{"name":"F#4","midi":66,"time":6.375,"velocity":0.7874015748031497,"duration":0.1875}],"controlChanges":{},"instrumentNumber":6,"instrument":"harpsichord","instrumentFamily":"piano","channelNumber":0,"isPercussion":false}]},"midiName":"untitled","centerTime":1.875,"difficulty":null},{"offset":36,"midiJson":{"header":{"PPQ":480,"bpm":80,"timeSignature":[4,4],"name":"untitled"},"startTime":0.5625,"duration":4.5,"tracks":[{"startTime":0.5625,"duration":4.5,"length":21,"notes":[{"name":"G#4","midi":68,"time":0.5625,"velocity":0.7874015748031497,"duration":0.1875},{"name":"A4","midi":69,"time":0.75,"velocity":0.7874015748031497,"duration":0.1875},{"name":"F#4","midi":66,"time":0.9375,"velocity":0.7874015748031497,"duration":0.1875},{"name":"G#4","midi":68,"time":1.125,"velocity":0.7874015748031497,"duration":0.1875},{"name":"E4","midi":64,"time":1.3125,"velocity":0.7874015748031497,"duration":0.1875},{"name":"E5","midi":76,"time":1.5,"velocity":0.7874015748031497,"duration":0.1875},{"name":"D5","midi":74,"time":1.6875,"velocity":0.7874015748031497,"duration":0.1875},{"name":"C5","midi":72,"time":1.875,"velocity":0.7874015748031497,"duration":0.1875},{"name":"E5","midi":76,"time":2.0625,"velocity":0.7874015748031497,"duration":0.1875},{"name":"D5","midi":74,"time":2.25,"velocity":0.7874015748031497,"duration":0.1875},{"name":"C5","midi":72,"time":2.4375,"velocity":0.7874015748031497,"duration":0.1875},{"name":"B4","midi":71,"time":2.625,"velocity":0.7874015748031497,"duration":0.1875},{"name":"D5","midi":74,"time":2.8125,"velocity":0.7874015748031497,"duration":0.1875},{"name":"C5","midi":72,"time":3,"velocity":0.7874015748031497,"duration":0.1875},{"name":"A5","midi":81,"time":3.1875,"velocity":0.7874015748031497,"duration":0.1875},{"name":"G#5","midi":80,"time":3.375,"velocity":0.7874015748031497,"duration":0.1875},{"name":"B5","midi":83,"time":3.5625,"velocity":0.7874015748031497,"duration":0.1875},{"name":"A5","midi":81,"time":3.75,"velocity":0.7874015748031497,"duration":0.1875},{"name":"E5","midi":76,"time":3.9375,"velocity":0.7874015748031497,"duration":0.1875},{"name":"F5","midi":77,"time":4.125,"velocity":0.7874015748031497,"duration":0.1875},{"name":"D5","midi":74,"time":4.3125,"velocity":0.7874015748031497,"duration":0.1875}],"controlChanges":{},"instrumentNumber":6,"instrument":"harpsichord","instrumentFamily":"piano","channelNumber":0,"isPercussion":false}]},"midiName":"untitled","centerTime":1.875,"difficulty":null},{"offset":39,"midiJson":{"header":{"PPQ":480,"bpm":80,"timeSignature":[4,4],"name":"untitled"},"startTime":1.5,"duration":4.5,"tracks":[{"startTime":1.5,"duration":4.5,"length":15,"notes":[{"name":"G#4","midi":68,"time":1.5,"velocity":0.7874015748031497,"duration":0.1875},{"name":"F5","midi":77,"time":1.6875,"velocity":0.7874015748031497,"duration":0.1875},{"name":"E5","midi":76,"time":1.875,"velocity":0.7874015748031497,"duration":0.1875},{"name":"D5","midi":74,"time":2.0625,"velocity":0.7874015748031497,"duration":0.1875},{"name":"C5","midi":72,"time":2.25,"velocity":0.7874015748031497,"duration":0.375},{"name":"B4","midi":71,"time":2.625,"velocity":0.7874015748031497,"duration":0.1875},{"name":"A4","midi":69,"time":2.8125,"velocity":0.7874015748031497,"duration":0.1875},{"name":"A4","midi":69,"time":3,"velocity":0.7874015748031497,"duration":0.1875},{"name":"A5","midi":81,"time":3.1875,"velocity":0.7874015748031497,"duration":0.1875},{"name":"G5","midi":79,"time":3.375,"velocity":0.7874015748031497,"duration":0.1875},{"name":"F5","midi":77,"time":3.5625,"velocity":0.7874015748031497,"duration":0.1875},{"name":"E5","midi":76,"time":3.75,"velocity":0.7874015748031497,"duration":0.1875},{"name":"G5","midi":79,"time":3.9375,"velocity":0.7874015748031497,"duration":0.1875},{"name":"F5","midi":77,"time":4.125,"velocity":0.7874015748031497,"duration":0.1875},{"name":"A5","midi":81,"time":4.3125,"velocity":0.7874015748031497,"duration":0.1875}],"controlChanges":{},"instrumentNumber":6,"instrument":"harpsichord","instrumentFamily":"piano","channelNumber":0,"isPercussion":false}]},"midiName":"untitled","centerTime":1.40625,"difficulty":null},{"offset":42,"midiJson":{"header":{"PPQ":480,"bpm":80,"timeSignature":[4,4],"name":"untitled"},"startTime":1.5,"duration":3.15625,"tracks":[{"startTime":1.5,"duration":3.15625,"length":1,"notes":[{"name":"G5","midi":79,"time":1.5,"velocity":0.7874015748031497,"duration":1.65625}],"controlChanges":{},"instrumentNumber":6,"instrument":"harpsichord","instrumentFamily":"piano","channelNumber":0,"isPercussion":false}]},"midiName":"untitled","centerTime":0,"difficulty":null},{"offset":45,"midiJson":{"header":{"PPQ":480,"bpm":80,"timeSignature":[4,4],"name":"untitled"},"startTime":0.1875,"duration":4.125,"tracks":[{"startTime":0.1875,"duration":4.125,"length":13,"notes":[{"name":"E5","midi":76,"time":0.1875,"velocity":0.7874015748031497,"duration":0.1875},{"name":"F5","midi":77,"time":0.375,"velocity":0.7874015748031497,"duration":0.1875},{"name":"G5","midi":79,"time":0.5625,"velocity":0.7874015748031497,"duration":0.1875},{"name":"A5","midi":81,"time":0.75,"velocity":0.7874015748031497,"duration":0.1875},{"name":"F5","midi":77,"time":0.9375,"velocity":0.7874015748031497,"duration":0.1875},{"name":"G5","midi":79,"time":1.125,"velocity":0.7874015748031497,"duration":0.1875},{"name":"E5","midi":76,"time":1.3125,"velocity":0.7874015748031497,"duration":0.1875},{"name":"F5","midi":77,"time":1.5,"velocity":0.7874015748031497,"duration":1.6875},{"name":"G5","midi":79,"time":3.1875,"velocity":0.7874015748031497,"duration":0.1875},{"name":"F5","midi":77,"time":3.375,"velocity":0.7874015748031497,"duration":0.1875},{"name":"E5","midi":76,"time":3.5625,"velocity":0.7874015748031497,"duration":0.1875},{"name":"D5","midi":74,"time":3.75,"velocity":0.7874015748031497,"duration":0.1875},{"name":"F5","midi":77,"time":3.9375,"velocity":0.7874015748031497,"duration":0.1875}],"controlChanges":{},"instrumentNumber":6,"instrument":"harpsichord","instrumentFamily":"piano","channelNumber":0,"isPercussion":false}]},"midiName":"untitled","centerTime":1.875,"difficulty":null},{"offset":48,"midiJson":{"header":{"PPQ":480,"bpm":80,"timeSignature":[4,4],"name":"untitled"},"startTime":1.125,"duration":3.15625,"tracks":[{"startTime":1.125,"duration":3.15625,"length":3,"notes":[{"name":"E5","midi":76,"time":1.125,"velocity":0.7874015748031497,"duration":0.1875},{"name":"G5","midi":79,"time":1.3125,"velocity":0.7874015748031497,"duration":0.1875},{"name":"F5","midi":77,"time":1.5,"velocity":0.7874015748031497,"duration":1.65625}],"controlChanges":{},"instrumentNumber":6,"instrument":"harpsichord","instrumentFamily":"piano","channelNumber":0,"isPercussion":false}]},"midiName":"untitled","centerTime":0.1875,"difficulty":null},{"offset":51,"midiJson":{"header":{"PPQ":480,"bpm":80,"timeSignature":[4,4],"name":"untitled"},"startTime":0.1875,"duration":3.15625,"tracks":[{"startTime":0.1875,"duration":3.15625,"length":8,"notes":[{"name":"D5","midi":74,"time":0.1875,"velocity":0.7874015748031497,"duration":0.1875},{"name":"E5","midi":76,"time":0.375,"velocity":0.7874015748031497,"duration":0.1875},{"name":"F5","midi":77,"time":0.5625,"velocity":0.7874015748031497,"duration":0.1875},{"name":"G5","midi":79,"time":0.75,"velocity":0.7874015748031497,"duration":0.1875},{"name":"E5","midi":76,"time":0.9375,"velocity":0.7874015748031497,"duration":0.1875},{"name":"F5","midi":77,"time":1.125,"velocity":0.7874015748031497,"duration":0.1875},{"name":"D5","midi":74,"time":1.3125,"velocity":0.7874015748031497,"duration":0.1875},{"name":"E5","midi":76,"time":1.5,"velocity":0.7874015748031497,"duration":1.65625}],"controlChanges":{},"instrumentNumber":6,"instrument":"harpsichord","instrumentFamily":"piano","channelNumber":0,"isPercussion":false}]},"midiName":"untitled","centerTime":0.65625,"difficulty":null},{"offset":54,"midiJson":{"header":{"PPQ":480,"bpm":80,"timeSignature":[4,4],"name":"untitled"},"startTime":0.1875,"duration":4.125,"tracks":[{"startTime":0.1875,"duration":4.125,"length":21,"notes":[{"name":"C5","midi":72,"time":0.1875,"velocity":0.7874015748031497,"duration":0.1875},{"name":"D5","midi":74,"time":0.375,"velocity":0.7874015748031497,"duration":0.1875},{"name":"E5","midi":76,"time":0.5625,"velocity":0.7874015748031497,"duration":0.1875},{"name":"F5","midi":77,"time":0.75,"velocity":0.7874015748031497,"duration":0.1875},{"name":"D5","midi":74,"time":0.9375,"velocity":0.7874015748031497,"duration":0.1875},{"name":"E5","midi":76,"time":1.125,"velocity":0.7874015748031497,"duration":0.1875},{"name":"C5","midi":72,"time":1.3125,"velocity":0.7874015748031497,"duration":0.1875},{"name":"D5","midi":74,"time":1.5,"velocity":0.7874015748031497,"duration":0.1875},{"name":"E5","midi":76,"time":1.6875,"velocity":0.7874015748031497,"duration":0.1875},{"name":"F5","midi":77,"time":1.875,"velocity":0.7874015748031497,"duration":0.1875},{"name":"G5","midi":79,"time":2.0625,"velocity":0.7874015748031497,"duration":0.1875},{"name":"A5","midi":81,"time":2.25,"velocity":0.7874015748031497,"duration":0.1875},{"name":"F5","midi":77,"time":2.4375,"velocity":0.7874015748031497,"duration":0.1875},{"name":"G5","midi":79,"time":2.625,"velocity":0.7874015748031497,"duration":0.1875},{"name":"E5","midi":76,"time":2.8125,"velocity":0.7874015748031497,"duration":0.1875},{"name":"F5","midi":77,"time":3,"velocity":0.7874015748031497,"duration":0.1875},{"name":"G5","midi":79,"time":3.1875,"velocity":0.7874015748031497,"duration":0.1875},{"name":"A5","midi":81,"time":3.375,"velocity":0.7874015748031497,"duration":0.1875},{"name":"B5","midi":83,"time":3.5625,"velocity":0.7874015748031497,"duration":0.1875},{"name":"C6","midi":84,"time":3.75,"velocity":0.7874015748031497,"duration":0.1875},{"name":"A5","midi":81,"time":3.9375,"velocity":0.7874015748031497,"duration":0.1875}],"controlChanges":{},"instrumentNumber":6,"instrument":"harpsichord","instrumentFamily":"piano","channelNumber":0,"isPercussion":false}]},"midiName":"untitled","centerTime":1.875,"difficulty":null},{"offset":57,"midiJson":{"header":{"PPQ":480,"bpm":80,"timeSignature":[4,4],"name":"untitled"},"startTime":1.125,"duration":5.0625,"tracks":[{"startTime":1.125,"duration":5.0625,"length":18,"notes":[{"name":"B5","midi":83,"time":1.125,"velocity":0.7874015748031497,"duration":0.1875},{"name":"G5","midi":79,"time":1.3125,"velocity":0.7874015748031497,"duration":0.1875},{"name":"C6","midi":84,"time":1.5,"velocity":0.7874015748031497,"duration":0.375},{"name":"G5","midi":79,"time":1.875,"velocity":0.7874015748031497,"duration":0.375},{"name":"E5","midi":76,"time":2.25,"velocity":0.7874015748031497,"duration":0.375},{"name":"D5","midi":74,"time":2.625,"velocity":0.7874015748031497,"duration":0.1875},{"name":"C5","midi":72,"time":2.8125,"velocity":0.7874015748031497,"duration":0.1875},{"name":"C5","midi":72,"time":3,"velocity":0.7874015748031497,"duration":0.1875},{"name":"A#4","midi":70,"time":3.1875,"velocity":0.7874015748031497,"duration":0.1875},{"name":"A4","midi":69,"time":3.375,"velocity":0.7874015748031497,"duration":0.1875},{"name":"G4","midi":67,"time":3.5625,"velocity":0.7874015748031497,"duration":0.1875},{"name":"F4","midi":65,"time":3.75,"velocity":0.7874015748031497,"duration":0.1875},{"name":"A4","midi":69,"time":3.9375,"velocity":0.7874015748031497,"duration":0.1875},{"name":"G4","midi":67,"time":4.125,"velocity":0.7874015748031497,"duration":0.1875},{"name":"A#4","midi":70,"time":4.3125,"velocity":0.7874015748031497,"duration":0.1875},{"name":"A4","midi":69,"time":4.5,"velocity":0.7874015748031497,"duration":0.1875},{"name":"B4","midi":71,"time":4.6875,"velocity":0.7874015748031497,"duration":0.1875},{"name":"C5","midi":72,"time":4.875,"velocity":0.7874015748031497,"duration":0.1875}],"controlChanges":{},"instrumentNumber":6,"instrument":"harpsichord","instrumentFamily":"piano","channelNumber":0,"isPercussion":false}]},"midiName":"untitled","centerTime":1.875,"difficulty":null},{"offset":60,"midiJson":{"header":{"PPQ":480,"bpm":80,"timeSignature":[4,4],"name":"untitled"},"startTime":2.0625,"duration":3,"tracks":[{"startTime":2.0625,"duration":3,"length":5,"notes":[{"name":"E4","midi":64,"time":2.0625,"velocity":0.7874015748031497,"duration":0.1875},{"name":"D4","midi":62,"time":2.25,"velocity":0.7874015748031497,"duration":0.1875},{"name":"C5","midi":72,"time":2.4375,"velocity":0.7874015748031497,"duration":0.1875},{"name":"F4","midi":65,"time":2.625,"velocity":0.7874015748031497,"duration":0.1875},{"name":"B4","midi":71,"time":2.8125,"velocity":0.7874015748031497,"duration":0.1875}],"controlChanges":{},"instrumentNumber":6,"instrument":"harpsichord","instrumentFamily":"piano","channelNumber":0,"isPercussion":false}]},"midiName":"untitled","centerTime":0.375,"difficulty":null},{"offset":63,"midiJson":{"header":{"PPQ":480,"bpm":80,"timeSignature":[4,4],"name":"untitled"},"startTime":0.09375,"duration":3,"tracks":[{"startTime":0.09375,"duration":3,"length":1,"notes":[{"name":"C5","midi":72,"time":0.09375,"velocity":0.7874015748031497,"duration":2.90625}],"controlChanges":{},"instrumentNumber":6,"instrument":"harpsichord","instrumentFamily":"piano","channelNumber":0,"isPercussion":false}]},"midiName":"untitled","centerTime":0,"difficulty":null},{"offset":0,"midiJson":{"header":{"PPQ":480,"bpm":80,"timeSignature":[4,4],"name":"untitled"},"startTime":1.6875,"duration":3.75,"tracks":[{"startTime":1.6875,"duration":3.75,"length":9,"notes":[{"name":"C3","midi":48,"time":1.6875,"velocity":0.7874015748031497,"duration":0.1875},{"name":"D3","midi":50,"time":1.875,"velocity":0.7874015748031497,"duration":0.1875},{"name":"E3","midi":52,"time":2.0625,"velocity":0.7874015748031497,"duration":0.1875},{"name":"F3","midi":53,"time":2.25,"velocity":0.7874015748031497,"duration":0.1875},{"name":"D3","midi":50,"time":2.4375,"velocity":0.7874015748031497,"duration":0.1875},{"name":"E3","midi":52,"time":2.625,"velocity":0.7874015748031497,"duration":0.1875},{"name":"C3","midi":48,"time":2.8125,"velocity":0.7874015748031497,"duration":0.1875},{"name":"G3","midi":55,"time":3,"velocity":0.7874015748031497,"duration":0.375},{"name":"G2","midi":43,"time":3.375,"velocity":0.7874015748031497,"duration":0.375}],"controlChanges":{},"instrumentNumber":6,"instrument":"harpsichord","instrumentFamily":"piano","channelNumber":1,"isPercussion":false}]},"midiName":"untitled","centerTime":0.84375,"difficulty":null},{"offset":3,"midiJson":{"header":{"PPQ":480,"bpm":80,"timeSignature":[4,4],"name":"untitled"},"startTime":1.6875,"duration":5.625,"tracks":[{"startTime":1.6875,"duration":5.625,"length":14,"notes":[{"name":"G3","midi":55,"time":1.6875,"velocity":0.7874015748031497,"duration":0.1875},{"name":"A3","midi":57,"time":1.875,"velocity":0.7874015748031497,"duration":0.1875},{"name":"B3","midi":59,"time":2.0625,"velocity":0.7874015748031497,"duration":0.1875},{"name":"C4","midi":60,"time":2.25,"velocity":0.7874015748031497,"duration":0.1875},{"name":"A3","midi":57,"time":2.4375,"velocity":0.7874015748031497,"duration":0.1875},{"name":"B3","midi":59,"time":2.625,"velocity":0.7874015748031497,"duration":0.1875},{"name":"G3","midi":55,"time":2.8125,"velocity":0.7874015748031497,"duration":0.1875},{"name":"C4","midi":60,"time":3,"velocity":0.7874015748031497,"duration":0.375},{"name":"B3","midi":59,"time":3.375,"velocity":0.7874015748031497,"duration":0.375},{"name":"C4","midi":60,"time":3.75,"velocity":0.7874015748031497,"duration":0.375},{"name":"D4","midi":62,"time":4.125,"velocity":0.7874015748031497,"duration":0.375},{"name":"E4","midi":64,"time":4.5,"velocity":0.7874015748031497,"duration":0.375},{"name":"G3","midi":55,"time":4.875,"velocity":0.7874015748031497,"duration":0.375},{"name":"A3","midi":57,"time":5.25,"velocity":0.7874015748031497,"duration":0.375}],"controlChanges":{},"instrumentNumber":6,"instrument":"harpsichord","instrumentFamily":"piano","channelNumber":1,"isPercussion":false}]},"midiName":"untitled","centerTime":1.78125,"difficulty":null},{"offset":6,"midiJson":{"header":{"PPQ":480,"bpm":80,"timeSignature":[4,4],"name":"untitled"},"startTime":2.625,"duration":6.15625,"tracks":[{"startTime":2.625,"duration":6.15625,"length":8,"notes":[{"name":"B3","midi":59,"time":2.625,"velocity":0.7874015748031497,"duration":0.375},{"name":"C4","midi":60,"time":3,"velocity":0.7874015748031497,"duration":0.375},{"name":"E3","midi":52,"time":3.375,"velocity":0.7874015748031497,"duration":0.375},{"name":"F#3","midi":54,"time":3.75,"velocity":0.7874015748031497,"duration":0.375},{"name":"G3","midi":55,"time":4.125,"velocity":0.7874015748031497,"duration":0.375},{"name":"A3","midi":57,"time":4.5,"velocity":0.7874015748031497,"duration":0.375},{"name":"B3","midi":59,"time":4.875,"velocity":0.7874015748031497,"duration":0.375},{"name":"C4","midi":60,"time":5.25,"velocity":0.7874015748031497,"duration":0.90625}],"controlChanges":{},"instrumentNumber":6,"instrument":"harpsichord","instrumentFamily":"piano","channelNumber":1,"isPercussion":false}]},"midiName":"untitled","centerTime":1.3125,"difficulty":null},{"offset":12,"midiJson":{"header":{"PPQ":480,"bpm":80,"timeSignature":[4,4],"name":"untitled"},"startTime":0.1875,"duration":4.125,"tracks":[{"startTime":0.1875,"duration":4.125,"length":14,"notes":[{"name":"D3","midi":50,"time":0.1875,"velocity":0.7874015748031497,"duration":0.1875},{"name":"E3","midi":52,"time":0.375,"velocity":0.7874015748031497,"duration":0.1875},{"name":"F#3","midi":54,"time":0.5625,"velocity":0.7874015748031497,"duration":0.1875},{"name":"G3","midi":55,"time":0.75,"velocity":0.7874015748031497,"duration":0.1875},{"name":"E3","midi":52,"time":0.9375,"velocity":0.7874015748031497,"duration":0.1875},{"name":"F#3","midi":54,"time":1.125,"velocity":0.7874015748031497,"duration":0.1875},{"name":"D3","midi":50,"time":1.3125,"velocity":0.7874015748031497,"duration":0.1875},{"name":"G3","midi":55,"time":1.5,"velocity":0.7874015748031497,"duration":0.375},{"name":"B2","midi":47,"time":1.875,"velocity":0.7874015748031497,"duration":0.375},{"name":"C3","midi":48,"time":2.25,"velocity":0.7874015748031497,"duration":0.375},{"name":"D3","midi":50,"time":2.625,"velocity":0.7874015748031497,"duration":0.375},{"name":"E3","midi":52,"time":3,"velocity":0.7874015748031497,"duration":0.375},{"name":"F#3","midi":54,"time":3.375,"velocity":0.7874015748031497,"duration":0.375},{"name":"G3","midi":55,"time":3.75,"velocity":0.7874015748031497,"duration":0.375}],"controlChanges":{},"instrumentNumber":6,"instrument":"harpsichord","instrumentFamily":"piano","channelNumber":1,"isPercussion":false}]},"midiName":"untitled","centerTime":1.78125,"difficulty":null},{"offset":15,"midiJson":{"header":{"PPQ":480,"bpm":80,"timeSignature":[4,4],"name":"untitled"},"startTime":1.125,"duration":3,"tracks":[{"startTime":1.125,"duration":3,"length":5,"notes":[{"name":"E3","midi":52,"time":1.125,"velocity":0.7874015748031497,"duration":0.375},{"name":"B2","midi":47,"time":1.5,"velocity":0.7874015748031497,"duration":0.5625},{"name":"C3","midi":48,"time":2.0625,"velocity":0.7874015748031497,"duration":0.1875},{"name":"D3","midi":50,"time":2.25,"velocity":0.7874015748031497,"duration":0.375},{"name":"D2","midi":38,"time":2.625,"velocity":0.7874015748031497,"duration":0.375}],"controlChanges":{},"instrumentNumber":6,"instrument":"harpsichord","instrumentFamily":"piano","channelNumber":1,"isPercussion":false}]},"midiName":"untitled","centerTime":0.75,"difficulty":null},{"offset":18,"midiJson":{"header":{"PPQ":480,"bpm":80,"timeSignature":[4,4],"name":"untitled"},"startTime":0.1875,"duration":4.125,"tracks":[{"startTime":0.1875,"duration":4.125,"length":17,"notes":[{"name":"G2","midi":43,"time":0.1875,"velocity":0.7874015748031497,"duration":0.1875},{"name":"A2","midi":45,"time":0.375,"velocity":0.7874015748031497,"duration":0.1875},{"name":"B2","midi":47,"time":0.5625,"velocity":0.7874015748031497,"duration":0.1875},{"name":"C3","midi":48,"time":0.75,"velocity":0.7874015748031497,"duration":0.1875},{"name":"A2","midi":45,"time":0.9375,"velocity":0.7874015748031497,"duration":0.1875},{"name":"B2","midi":47,"time":1.125,"velocity":0.7874015748031497,"duration":0.1875},{"name":"G2","midi":43,"time":1.3125,"velocity":0.7874015748031497,"duration":0.1875},{"name":"D3","midi":50,"time":1.5,"velocity":0.7874015748031497,"duration":0.375},{"name":"G3","midi":55,"time":1.875,"velocity":0.7874015748031497,"duration":0.375},{"name":"F#3","midi":54,"time":2.25,"velocity":0.7874015748031497,"duration":0.375},{"name":"G3","midi":55,"time":2.625,"velocity":0.7874015748031497,"duration":0.375},{"name":"A3","midi":57,"time":3,"velocity":0.7874015748031497,"duration":0.1875},{"name":"D3","midi":50,"time":3.1875,"velocity":0.7874015748031497,"duration":0.1875},{"name":"E3","midi":52,"time":3.375,"velocity":0.7874015748031497,"duration":0.1875},{"name":"F#3","midi":54,"time":3.5625,"velocity":0.7874015748031497,"duration":0.1875},{"name":"G3","midi":55,"time":3.75,"velocity":0.7874015748031497,"duration":0.1875},{"name":"E3","midi":52,"time":3.9375,"velocity":0.7874015748031497,"duration":0.1875}],"controlChanges":{},"instrumentNumber":6,"instrument":"harpsichord","instrumentFamily":"piano","channelNumber":1,"isPercussion":false}]},"midiName":"untitled","centerTime":1.875,"difficulty":null},{"offset":21,"midiJson":{"header":{"PPQ":480,"bpm":80,"timeSignature":[4,4],"name":"untitled"},"startTime":1.125,"duration":4.875,"tracks":[{"startTime":1.125,"duration":4.875,"length":15,"notes":[{"name":"F#3","midi":54,"time":1.125,"velocity":0.7874015748031497,"duration":0.1875},{"name":"D3","midi":50,"time":1.3125,"velocity":0.7874015748031497,"duration":0.1875},{"name":"A3","midi":57,"time":1.5,"velocity":0.7874015748031497,"duration":0.375},{"name":"D4","midi":62,"time":1.875,"velocity":0.7874015748031497,"duration":0.375},{"name":"C4","midi":60,"time":2.25,"velocity":0.7874015748031497,"duration":0.375},{"name":"D4","midi":62,"time":2.625,"velocity":0.7874015748031497,"duration":0.375},{"name":"G3","midi":55,"time":3,"velocity":0.7874015748031497,"duration":0.1875},{"name":"G4","midi":67,"time":3.1875,"velocity":0.7874015748031497,"duration":0.1875},{"name":"F4","midi":65,"time":3.375,"velocity":0.7874015748031497,"duration":0.1875},{"name":"E4","midi":64,"time":3.5625,"velocity":0.7874015748031497,"duration":0.1875},{"name":"D4","midi":62,"time":3.75,"velocity":0.7874015748031497,"duration":0.1875},{"name":"F4","midi":65,"time":3.9375,"velocity":0.7874015748031497,"duration":0.1875},{"name":"E4","midi":64,"time":4.125,"velocity":0.7874015748031497,"duration":0.1875},{"name":"G4","midi":67,"time":4.3125,"velocity":0.7874015748031497,"duration":0.1875},{"name":"F4","midi":65,"time":4.5,"velocity":0.7874015748031497,"duration":0.375}],"controlChanges":{},"instrumentNumber":6,"instrument":"harpsichord","instrumentFamily":"piano","channelNumber":1,"isPercussion":false}]},"midiName":"untitled","centerTime":1.6875,"difficulty":null},{"offset":24,"midiJson":{"header":{"PPQ":480,"bpm":80,"timeSignature":[4,4],"name":"untitled"},"startTime":1.875,"duration":5.625,"tracks":[{"startTime":1.875,"duration":5.625,"length":14,"notes":[{"name":"E4","midi":64,"time":1.875,"velocity":0.7874015748031497,"duration":0.375},{"name":"F4","midi":65,"time":2.25,"velocity":0.7874015748031497,"duration":0.375},{"name":"D4","midi":62,"time":2.625,"velocity":0.7874015748031497,"duration":0.375},{"name":"E4","midi":64,"time":3,"velocity":0.7874015748031497,"duration":0.1875},{"name":"A4","midi":69,"time":3.1875,"velocity":0.7874015748031497,"duration":0.1875},{"name":"G4","midi":67,"time":3.375,"velocity":0.7874015748031497,"duration":0.1875},{"name":"F4","midi":65,"time":3.5625,"velocity":0.7874015748031497,"duration":0.1875},{"name":"E4","midi":64,"time":3.75,"velocity":0.7874015748031497,"duration":0.1875},{"name":"G4","midi":67,"time":3.9375,"velocity":0.7874015748031497,"duration":0.1875},{"name":"F4","midi":65,"time":4.125,"velocity":0.7874015748031497,"duration":0.1875},{"name":"A4","midi":69,"time":4.3125,"velocity":0.7874015748031497,"duration":0.1875},{"name":"G4","midi":67,"time":4.5,"velocity":0.7874015748031497,"duration":0.375},{"name":"F4","midi":65,"time":4.875,"velocity":0.7874015748031497,"duration":0.375},{"name":"G4","midi":67,"time":5.25,"velocity":0.7874015748031497,"duration":0.375}],"controlChanges":{},"instrumentNumber":6,"instrument":"harpsichord","instrumentFamily":"piano","channelNumber":1,"isPercussion":false}]},"midiName":"untitled","centerTime":1.6875,"difficulty":null},{"offset":27,"midiJson":{"header":{"PPQ":480,"bpm":80,"timeSignature":[4,4],"name":"untitled"},"startTime":2.625,"duration":6.5625,"tracks":[{"startTime":2.625,"duration":6.5625,"length":20,"notes":[{"name":"E4","midi":64,"time":2.625,"velocity":0.7874015748031497,"duration":0.375},{"name":"F4","midi":65,"time":3,"velocity":0.7874015748031497,"duration":0.1875},{"name":"A#4","midi":70,"time":3.1875,"velocity":0.7874015748031497,"duration":0.1875},{"name":"A4","midi":69,"time":3.375,"velocity":0.7874015748031497,"duration":0.1875},{"name":"G4","midi":67,"time":3.5625,"velocity":0.7874015748031497,"duration":0.1875},{"name":"F4","midi":65,"time":3.75,"velocity":0.7874015748031497,"duration":0.1875},{"name":"A4","midi":69,"time":3.9375,"velocity":0.7874015748031497,"duration":0.1875},{"name":"G4","midi":67,"time":4.125,"velocity":0.7874015748031497,"duration":0.1875},{"name":"A#4","midi":70,"time":4.3125,"velocity":0.7874015748031497,"duration":0.1875},{"name":"A4","midi":69,"time":4.5,"velocity":0.7874015748031497,"duration":0.1875},{"name":"G4","midi":67,"time":4.6875,"velocity":0.7874015748031497,"duration":0.1875},{"name":"F4","midi":65,"time":4.875,"velocity":0.7874015748031497,"duration":0.1875},{"name":"E4","midi":64,"time":5.0625,"velocity":0.7874015748031497,"duration":0.1875},{"name":"D4","midi":62,"time":5.25,"velocity":0.7874015748031497,"duration":0.1875},{"name":"F4","midi":65,"time":5.4375,"velocity":0.7874015748031497,"duration":0.1875},{"name":"E4","midi":64,"time":5.625,"velocity":0.7874015748031497,"duration":0.1875},{"name":"G4","midi":67,"time":5.8125,"velocity":0.7874015748031497,"duration":0.1875},{"name":"F4","midi":65,"time":6,"velocity":0.7874015748031497,"duration":0.1875},{"name":"E4","midi":64,"time":6.1875,"velocity":0.7874015748031497,"duration":0.1875},{"name":"D4","midi":62,"time":6.375,"velocity":0.7874015748031497,"duration":0.1875}],"controlChanges":{},"instrumentNumber":6,"instrument":"harpsichord","instrumentFamily":"piano","channelNumber":1,"isPercussion":false}]},"midiName":"untitled","centerTime":1.875,"difficulty":null},{"offset":33,"midiJson":{"header":{"PPQ":480,"bpm":80,"timeSignature":[4,4],"name":"untitled"},"startTime":0.5625,"duration":4.5,"tracks":[{"startTime":0.5625,"duration":4.5,"length":19,"notes":[{"name":"C4","midi":60,"time":0.5625,"velocity":0.7874015748031497,"duration":0.1875},{"name":"B3","midi":59,"time":0.75,"velocity":0.7874015748031497,"duration":0.1875},{"name":"D4","midi":62,"time":0.9375,"velocity":0.7874015748031497,"duration":0.1875},{"name":"C4","midi":60,"time":1.125,"velocity":0.7874015748031497,"duration":0.1875},{"name":"E4","midi":64,"time":1.3125,"velocity":0.7874015748031497,"duration":0.1875},{"name":"D4","midi":62,"time":1.5,"velocity":0.7874015748031497,"duration":0.1875},{"name":"C4","midi":60,"time":1.6875,"velocity":0.7874015748031497,"duration":0.1875},{"name":"B3","midi":59,"time":1.875,"velocity":0.7874015748031497,"duration":0.1875},{"name":"A3","midi":57,"time":2.0625,"velocity":0.7874015748031497,"duration":0.1875},{"name":"G#3","midi":56,"time":2.25,"velocity":0.7874015748031497,"duration":0.1875},{"name":"B3","midi":59,"time":2.4375,"velocity":0.7874015748031497,"duration":0.1875},{"name":"A3","midi":57,"time":2.625,"velocity":0.7874015748031497,"duration":0.1875},{"name":"C4","midi":60,"time":2.8125,"velocity":0.7874015748031497,"duration":0.1875},{"name":"B3","midi":59,"time":3,"velocity":0.7874015748031497,"duration":0.375},{"name":"E3","midi":52,"time":3.375,"velocity":0.7874015748031497,"duration":0.375},{"name":"D4","midi":62,"time":3.75,"velocity":0.7874015748031497,"duration":0.09375},{"name":"C4","midi":60,"time":3.84375,"velocity":0.7874015748031497,"duration":0.09375},{"name":"D4","midi":62,"time":3.9375,"velocity":0.7874015748031497,"duration":0.375},{"name":"E4","midi":64,"time":4.3125,"velocity":0.7874015748031497,"duration":0.1875}],"controlChanges":{},"instrumentNumber":6,"instrument":"harpsichord","instrumentFamily":"piano","channelNumber":1,"isPercussion":false}]},"midiName":"untitled","centerTime":1.875,"difficulty":null},{"offset":36,"midiJson":{"header":{"PPQ":480,"bpm":80,"timeSignature":[4,4],"name":"untitled"},"startTime":1.5,"duration":5.25,"tracks":[{"startTime":1.5,"duration":5.25,"length":18,"notes":[{"name":"C4","midi":60,"time":1.5,"velocity":0.7874015748031497,"duration":0.1875},{"name":"B3","midi":59,"time":1.6875,"velocity":0.7874015748031497,"duration":0.1875},{"name":"A3","midi":57,"time":1.875,"velocity":0.7874015748031497,"duration":0.1875},{"name":"G3","midi":55,"time":2.0625,"velocity":0.7874015748031497,"duration":0.1875},{"name":"F#3","midi":54,"time":2.25,"velocity":0.7874015748031497,"duration":0.1875},{"name":"A3","midi":57,"time":2.4375,"velocity":0.7874015748031497,"duration":0.1875},{"name":"G#3","midi":56,"time":2.625,"velocity":0.7874015748031497,"duration":0.1875},{"name":"B3","midi":59,"time":2.8125,"velocity":0.7874015748031497,"duration":0.1875},{"name":"A3","midi":57,"time":3,"velocity":0.7874015748031497,"duration":0.1875},{"name":"C4","midi":60,"time":3.1875,"velocity":0.7874015748031497,"duration":0.1875},{"name":"B3","midi":59,"time":3.375,"velocity":0.7874015748031497,"duration":0.1875},{"name":"D4","midi":62,"time":3.5625,"velocity":0.7874015748031497,"duration":0.1875},{"name":"C4","midi":60,"time":3.75,"velocity":0.7874015748031497,"duration":0.1875},{"name":"E4","midi":64,"time":3.9375,"velocity":0.7874015748031497,"duration":0.1875},{"name":"D4","midi":62,"time":4.125,"velocity":0.7874015748031497,"duration":0.1875},{"name":"F4","midi":65,"time":4.3125,"velocity":0.7874015748031497,"duration":0.1875},{"name":"E4","midi":64,"time":4.5,"velocity":0.7874015748031497,"duration":0.375},{"name":"A3","midi":57,"time":4.875,"velocity":0.7874015748031497,"duration":0.375}],"controlChanges":{},"instrumentNumber":6,"instrument":"harpsichord","instrumentFamily":"piano","channelNumber":1,"isPercussion":false}]},"midiName":"untitled","centerTime":1.6875,"difficulty":null},{"offset":39,"midiJson":{"header":{"PPQ":480,"bpm":80,"timeSignature":[4,4],"name":"untitled"},"startTime":2.25,"duration":3.75,"tracks":[{"startTime":2.25,"duration":3.75,"length":4,"notes":[{"name":"E4","midi":64,"time":2.25,"velocity":0.7874015748031497,"duration":0.375},{"name":"E3","midi":52,"time":2.625,"velocity":0.7874015748031497,"duration":0.375},{"name":"A3","midi":57,"time":3,"velocity":0.7874015748031497,"duration":0.375},{"name":"A2","midi":45,"time":3.375,"velocity":0.7874015748031497,"duration":0.375}],"controlChanges":{},"instrumentNumber":6,"instrument":"harpsichord","instrumentFamily":"piano","channelNumber":1,"isPercussion":false}]},"midiName":"untitled","centerTime":0.5625,"difficulty":null},{"offset":42,"midiJson":{"header":{"PPQ":480,"bpm":80,"timeSignature":[4,4],"name":"untitled"},"startTime":1.6875,"duration":4.65625,"tracks":[{"startTime":1.6875,"duration":4.65625,"length":8,"notes":[{"name":"E4","midi":64,"time":1.6875,"velocity":0.7874015748031497,"duration":0.1875},{"name":"D4","midi":62,"time":1.875,"velocity":0.7874015748031497,"duration":0.1875},{"name":"C4","midi":60,"time":2.0625,"velocity":0.7874015748031497,"duration":0.1875},{"name":"B3","midi":59,"time":2.25,"velocity":0.7874015748031497,"duration":0.1875},{"name":"D4","midi":62,"time":2.4375,"velocity":0.7874015748031497,"duration":0.1875},{"name":"C#4","midi":61,"time":2.625,"velocity":0.7874015748031497,"duration":0.1875},{"name":"E4","midi":64,"time":2.8125,"velocity":0.7874015748031497,"duration":0.1875},{"name":"D4","midi":62,"time":3,"velocity":0.7874015748031497,"duration":1.65625}],"controlChanges":{},"instrumentNumber":6,"instrument":"harpsichord","instrumentFamily":"piano","channelNumber":1,"isPercussion":false}]},"midiName":"untitled","centerTime":0.65625,"difficulty":null},{"offset":45,"midiJson":{"header":{"PPQ":480,"bpm":80,"timeSignature":[4,4],"name":"untitled"},"startTime":1.6875,"duration":4.65625,"tracks":[{"startTime":1.6875,"duration":4.65625,"length":8,"notes":[{"name":"A3","midi":57,"time":1.6875,"velocity":0.7874015748031497,"duration":0.1875},{"name":"B3","midi":59,"time":1.875,"velocity":0.7874015748031497,"duration":0.1875},{"name":"C4","midi":60,"time":2.0625,"velocity":0.7874015748031497,"duration":0.1875},{"name":"D4","midi":62,"time":2.25,"velocity":0.7874015748031497,"duration":0.1875},{"name":"B3","midi":59,"time":2.4375,"velocity":0.7874015748031497,"duration":0.1875},{"name":"C4","midi":60,"time":2.625,"velocity":0.7874015748031497,"duration":0.1875},{"name":"A3","midi":57,"time":2.8125,"velocity":0.7874015748031497,"duration":0.1875},{"name":"B3","midi":59,"time":3,"velocity":0.7874015748031497,"duration":1.65625}],"controlChanges":{},"instrumentNumber":6,"instrument":"harpsichord","instrumentFamily":"piano","channelNumber":1,"isPercussion":false}]},"midiName":"untitled","centerTime":0.65625,"difficulty":null},{"offset":48,"midiJson":{"header":{"PPQ":480,"bpm":80,"timeSignature":[4,4],"name":"untitled"},"startTime":1.6875,"duration":4.65625,"tracks":[{"startTime":1.6875,"duration":4.65625,"length":8,"notes":[{"name":"D4","midi":62,"time":1.6875,"velocity":0.7874015748031497,"duration":0.1875},{"name":"C4","midi":60,"time":1.875,"velocity":0.7874015748031497,"duration":0.1875},{"name":"B3","midi":59,"time":2.0625,"velocity":0.7874015748031497,"duration":0.1875},{"name":"A3","midi":57,"time":2.25,"velocity":0.7874015748031497,"duration":0.1875},{"name":"C4","midi":60,"time":2.4375,"velocity":0.7874015748031497,"duration":0.1875},{"name":"B3","midi":59,"time":2.625,"velocity":0.7874015748031497,"duration":0.1875},{"name":"D4","midi":62,"time":2.8125,"velocity":0.7874015748031497,"duration":0.1875},{"name":"C4","midi":60,"time":3,"velocity":0.7874015748031497,"duration":1.65625}],"controlChanges":{},"instrumentNumber":6,"instrument":"harpsichord","instrumentFamily":"piano","channelNumber":1,"isPercussion":false}]},"midiName":"untitled","centerTime":0.65625,"difficulty":null},{"offset":51,"midiJson":{"header":{"PPQ":480,"bpm":80,"timeSignature":[4,4],"name":"untitled"},"startTime":1.6875,"duration":5.625,"tracks":[{"startTime":1.6875,"duration":5.625,"length":14,"notes":[{"name":"G3","midi":55,"time":1.6875,"velocity":0.7874015748031497,"duration":0.1875},{"name":"A3","midi":57,"time":1.875,"velocity":0.7874015748031497,"duration":0.1875},{"name":"A#3","midi":58,"time":2.0625,"velocity":0.7874015748031497,"duration":0.1875},{"name":"C4","midi":60,"time":2.25,"velocity":0.7874015748031497,"duration":0.1875},{"name":"A3","midi":57,"time":2.4375,"velocity":0.7874015748031497,"duration":0.1875},{"name":"A#3","midi":58,"time":2.625,"velocity":0.7874015748031497,"duration":0.1875},{"name":"G3","midi":55,"time":2.8125,"velocity":0.7874015748031497,"duration":0.1875},{"name":"A3","midi":57,"time":3,"velocity":0.7874015748031497,"duration":0.375},{"name":"A#3","midi":58,"time":3.375,"velocity":0.7874015748031497,"duration":0.375},{"name":"A3","midi":57,"time":3.75,"velocity":0.7874015748031497,"duration":0.375},{"name":"G3","midi":55,"time":4.125,"velocity":0.7874015748031497,"duration":0.375},{"name":"F3","midi":53,"time":4.5,"velocity":0.7874015748031497,"duration":0.375},{"name":"D4","midi":62,"time":4.875,"velocity":0.7874015748031497,"duration":0.375},{"name":"C4","midi":60,"time":5.25,"velocity":0.7874015748031497,"duration":0.375}],"controlChanges":{},"instrumentNumber":6,"instrument":"harpsichord","instrumentFamily":"piano","channelNumber":1,"isPercussion":false}]},"midiName":"untitled","centerTime":1.78125,"difficulty":null},{"offset":54,"midiJson":{"header":{"PPQ":480,"bpm":80,"timeSignature":[4,4],"name":"untitled"},"startTime":2.625,"duration":6.375,"tracks":[{"startTime":2.625,"duration":6.375,"length":14,"notes":[{"name":"A#3","midi":58,"time":2.625,"velocity":0.7874015748031497,"duration":0.375},{"name":"A3","midi":57,"time":3,"velocity":0.7874015748031497,"duration":0.375},{"name":"F4","midi":65,"time":3.375,"velocity":0.7874015748031497,"duration":0.375},{"name":"E4","midi":64,"time":3.75,"velocity":0.7874015748031497,"duration":0.375},{"name":"D4","midi":62,"time":4.125,"velocity":0.7874015748031497,"duration":0.375},{"name":"E4","midi":64,"time":4.5,"velocity":0.7874015748031497,"duration":0.1875},{"name":"D3","midi":50,"time":4.6875,"velocity":0.7874015748031497,"duration":0.1875},{"name":"E3","midi":52,"time":4.875,"velocity":0.7874015748031497,"duration":0.1875},{"name":"F3","midi":53,"time":5.0625,"velocity":0.7874015748031497,"duration":0.1875},{"name":"G3","midi":55,"time":5.25,"velocity":0.7874015748031497,"duration":0.1875},{"name":"E3","midi":52,"time":5.4375,"velocity":0.7874015748031497,"duration":0.1875},{"name":"F3","midi":53,"time":5.625,"velocity":0.7874015748031497,"duration":0.1875},{"name":"D3","midi":50,"time":5.8125,"velocity":0.7874015748031497,"duration":0.1875},{"name":"E3","midi":52,"time":6,"velocity":0.7874015748031497,"duration":0.375}],"controlChanges":{},"instrumentNumber":6,"instrument":"harpsichord","instrumentFamily":"piano","channelNumber":1,"isPercussion":false}]},"midiName":"untitled","centerTime":1.6875,"difficulty":null},{"offset":60,"midiJson":{"header":{"PPQ":480,"bpm":80,"timeSignature":[4,4],"name":"untitled"},"startTime":0.375,"duration":3,"tracks":[{"startTime":0.375,"duration":3,"length":9,"notes":[{"name":"C3","midi":48,"time":0.375,"velocity":0.7874015748031497,"duration":0.375},{"name":"D3","midi":50,"time":0.75,"velocity":0.7874015748031497,"duration":0.375},{"name":"E3","midi":52,"time":1.125,"velocity":0.7874015748031497,"duration":0.375},{"name":"F3","midi":53,"time":1.5,"velocity":0.7874015748031497,"duration":0.1875},{"name":"D3","midi":50,"time":1.6875,"velocity":0.7874015748031497,"duration":0.1875},{"name":"E3","midi":52,"time":1.875,"velocity":0.7874015748031497,"duration":0.1875},{"name":"F3","midi":53,"time":2.0625,"velocity":0.7874015748031497,"duration":0.1875},{"name":"G3","midi":55,"time":2.25,"velocity":0.7874015748031497,"duration":0.375},{"name":"G2","midi":43,"time":2.625,"velocity":0.7874015748031497,"duration":0.375}],"controlChanges":{},"instrumentNumber":6,"instrument":"harpsichord","instrumentFamily":"piano","channelNumber":1,"isPercussion":false}]},"midiName":"untitled","centerTime":1.125,"difficulty":null},{"offset":63,"midiJson":{"header":{"PPQ":480,"bpm":80,"timeSignature":[4,4],"name":"untitled"},"startTime":0,"duration":3,"tracks":[{"startTime":0,"duration":3,"length":1,"notes":[{"name":"C2","midi":36,"time":0,"velocity":0.7874015748031497,"duration":3}],"controlChanges":{},"instrumentNumber":6,"instrument":"harpsichord","instrumentFamily":"piano","channelNumber":1,"isPercussion":false}]},"midiName":"untitled","centerTime":0,"difficulty":null}]`
);

export default data;
